<?xml version="1.0" encoding="utf-8"?>
<svg version="1.1" baseProfile="full" width="800" height="600" xmlns="http://www.w3.org/2000/svg">
<clipPath>
<rect x="0" y="0" width="800" height="600" fill="rgb(0,0,0)" />
</clipPath>
<line x1="40" y1="287.143" x2="780" y2="287.143" stroke="rgb(0,0,0)" />
<line x1="40" y1="287" x2="40" y2="291" stroke="rgb(0,0,0)" />
<line x1="55.102" y1="287" x2="55.102" y2="291" stroke="rgb(0,0,0)" />
<line x1="70.2041" y1="287" x2="70.2041" y2="291" stroke="rgb(0,0,0)" />
<line x1="85.3061" y1="287" x2="85.3061" y2="291" stroke="rgb(0,0,0)" />
<text x="100" y="315" fill="rgb(0,0,0)">
-20</text>
<line x1="100.408" y1="287" x2="100.408" y2="295" stroke="rgb(0,0,0)" />
<line x1="115.51" y1="287" x2="115.51" y2="291" stroke="rgb(0,0,0)" />
<line x1="130.612" y1="287" x2="130.612" y2="291" stroke="rgb(0,0,0)" />
<line x1="145.714" y1="287" x2="145.714" y2="291" stroke="rgb(0,0,0)" />
<line x1="160.816" y1="287" x2="160.816" y2="291" stroke="rgb(0,0,0)" />
<text x="175" y="315" fill="rgb(0,0,0)">
-15</text>
<line x1="175.918" y1="287" x2="175.918" y2="295" stroke="rgb(0,0,0)" />
<line x1="191.02" y1="287" x2="191.02" y2="291" stroke="rgb(0,0,0)" />
<line x1="206.122" y1="287" x2="206.122" y2="291" stroke="rgb(0,0,0)" />
<line x1="221.224" y1="287" x2="221.224" y2="291" stroke="rgb(0,0,0)" />
<line x1="236.327" y1="287" x2="236.327" y2="291" stroke="rgb(0,0,0)" />
<text x="251" y="315" fill="rgb(0,0,0)">
-10</text>
<line x1="251.429" y1="287" x2="251.429" y2="295" stroke="rgb(0,0,0)" />
<line x1="266.531" y1="287" x2="266.531" y2="291" stroke="rgb(0,0,0)" />
<line x1="281.633" y1="287" x2="281.633" y2="291" stroke="rgb(0,0,0)" />
<line x1="296.735" y1="287" x2="296.735" y2="291" stroke="rgb(0,0,0)" />
<line x1="311.837" y1="287" x2="311.837" y2="291" stroke="rgb(0,0,0)" />
<text x="326" y="315" fill="rgb(0,0,0)">
-5</text>
<line x1="326.939" y1="287" x2="326.939" y2="295" stroke="rgb(0,0,0)" />
<line x1="342.041" y1="287" x2="342.041" y2="291" stroke="rgb(0,0,0)" />
<line x1="357.143" y1="287" x2="357.143" y2="291" stroke="rgb(0,0,0)" />
<line x1="372.245" y1="287" x2="372.245" y2="291" stroke="rgb(0,0,0)" />
<line x1="387.347" y1="287" x2="387.347" y2="291" stroke="rgb(0,0,0)" />
<text x="402" y="315" fill="rgb(0,0,0)">
0</text>
<line x1="402.449" y1="287" x2="402.449" y2="295" stroke="rgb(0,0,0)" />
<line x1="417.551" y1="287" x2="417.551" y2="291" stroke="rgb(0,0,0)" />
<line x1="432.653" y1="287" x2="432.653" y2="291" stroke="rgb(0,0,0)" />
<line x1="447.755" y1="287" x2="447.755" y2="291" stroke="rgb(0,0,0)" />
<line x1="462.857" y1="287" x2="462.857" y2="291" stroke="rgb(0,0,0)" />
<text x="477" y="315" fill="rgb(0,0,0)">
5</text>
<line x1="477.959" y1="287" x2="477.959" y2="295" stroke="rgb(0,0,0)" />
<line x1="493.061" y1="287" x2="493.061" y2="291" stroke="rgb(0,0,0)" />
<line x1="508.163" y1="287" x2="508.163" y2="291" stroke="rgb(0,0,0)" />
<line x1="523.265" y1="287" x2="523.265" y2="291" stroke="rgb(0,0,0)" />
<line x1="538.367" y1="287" x2="538.367" y2="291" stroke="rgb(0,0,0)" />
<text x="553" y="315" fill="rgb(0,0,0)">
10</text>
<line x1="553.469" y1="287" x2="553.469" y2="295" stroke="rgb(0,0,0)" />
<line x1="568.571" y1="287" x2="568.571" y2="291" stroke="rgb(0,0,0)" />
<line x1="583.673" y1="287" x2="583.673" y2="291" stroke="rgb(0,0,0)" />
<line x1="598.776" y1="287" x2="598.776" y2="291" stroke="rgb(0,0,0)" />
<line x1="613.878" y1="287" x2="613.878" y2="291" stroke="rgb(0,0,0)" />
<text x="628" y="315" fill="rgb(0,0,0)">
15</text>
<line x1="628.98" y1="287" x2="628.98" y2="295" stroke="rgb(0,0,0)" />
<line x1="644.082" y1="287" x2="644.082" y2="291" stroke="rgb(0,0,0)" />
<line x1="659.184" y1="287" x2="659.184" y2="291" stroke="rgb(0,0,0)" />
<line x1="674.286" y1="287" x2="674.286" y2="291" stroke="rgb(0,0,0)" />
<line x1="689.388" y1="287" x2="689.388" y2="291" stroke="rgb(0,0,0)" />
<text x="704" y="315" fill="rgb(0,0,0)">
20</text>
<line x1="704.49" y1="287" x2="704.49" y2="295" stroke="rgb(0,0,0)" />
<line x1="719.592" y1="287" x2="719.592" y2="291" stroke="rgb(0,0,0)" />
<line x1="734.694" y1="287" x2="734.694" y2="291" stroke="rgb(0,0,0)" />
<line x1="749.796" y1="287" x2="749.796" y2="291" stroke="rgb(0,0,0)" />
<line x1="764.898" y1="287" x2="764.898" y2="291" stroke="rgb(0,0,0)" />
<text x="780" y="315" fill="rgb(0,0,0)">
25</text>
<line x1="780" y1="287" x2="780" y2="295" stroke="rgb(0,0,0)" />
<line x1="402.449" y1="5" x2="402.449" y2="558" stroke="rgb(0,0,0)" />
<line x1="402" y1="558" x2="398" y2="558" stroke="rgb(0,0,0)" />
<text x="344" y="558" fill="rgb(0,0,0)">
-140</text>
<line x1="402" y1="550.476" x2="394" y2="550.476" stroke="rgb(0,0,0)" />
<line x1="402" y1="542.952" x2="398" y2="542.952" stroke="rgb(0,0,0)" />
<line x1="402" y1="535.429" x2="398" y2="535.429" stroke="rgb(0,0,0)" />
<line x1="402" y1="527.905" x2="398" y2="527.905" stroke="rgb(0,0,0)" />
<line x1="402" y1="520.381" x2="398" y2="520.381" stroke="rgb(0,0,0)" />
<text x="344" y="520" fill="rgb(0,0,0)">
-120</text>
<line x1="402" y1="512.857" x2="394" y2="512.857" stroke="rgb(0,0,0)" />
<line x1="402" y1="505.333" x2="398" y2="505.333" stroke="rgb(0,0,0)" />
<line x1="402" y1="497.81" x2="398" y2="497.81" stroke="rgb(0,0,0)" />
<line x1="402" y1="490.286" x2="398" y2="490.286" stroke="rgb(0,0,0)" />
<line x1="402" y1="482.762" x2="398" y2="482.762" stroke="rgb(0,0,0)" />
<text x="344" y="483" fill="rgb(0,0,0)">
-100</text>
<line x1="402" y1="475.238" x2="394" y2="475.238" stroke="rgb(0,0,0)" />
<line x1="402" y1="467.714" x2="398" y2="467.714" stroke="rgb(0,0,0)" />
<line x1="402" y1="460.19" x2="398" y2="460.19" stroke="rgb(0,0,0)" />
<line x1="402" y1="452.667" x2="398" y2="452.667" stroke="rgb(0,0,0)" />
<line x1="402" y1="445.143" x2="398" y2="445.143" stroke="rgb(0,0,0)" />
<text x="349" y="445" fill="rgb(0,0,0)">
-80</text>
<line x1="402" y1="437.619" x2="394" y2="437.619" stroke="rgb(0,0,0)" />
<line x1="402" y1="430.095" x2="398" y2="430.095" stroke="rgb(0,0,0)" />
<line x1="402" y1="422.571" x2="398" y2="422.571" stroke="rgb(0,0,0)" />
<line x1="402" y1="415.048" x2="398" y2="415.048" stroke="rgb(0,0,0)" />
<line x1="402" y1="407.524" x2="398" y2="407.524" stroke="rgb(0,0,0)" />
<text x="349" y="408" fill="rgb(0,0,0)">
-60</text>
<line x1="402" y1="400" x2="394" y2="400" stroke="rgb(0,0,0)" />
<line x1="402" y1="392.476" x2="398" y2="392.476" stroke="rgb(0,0,0)" />
<line x1="402" y1="384.952" x2="398" y2="384.952" stroke="rgb(0,0,0)" />
<line x1="402" y1="377.429" x2="398" y2="377.429" stroke="rgb(0,0,0)" />
<line x1="402" y1="369.905" x2="398" y2="369.905" stroke="rgb(0,0,0)" />
<text x="349" y="370" fill="rgb(0,0,0)">
-40</text>
<line x1="402" y1="362.381" x2="394" y2="362.381" stroke="rgb(0,0,0)" />
<line x1="402" y1="354.857" x2="398" y2="354.857" stroke="rgb(0,0,0)" />
<line x1="402" y1="347.333" x2="398" y2="347.333" stroke="rgb(0,0,0)" />
<line x1="402" y1="339.81" x2="398" y2="339.81" stroke="rgb(0,0,0)" />
<line x1="402" y1="332.286" x2="398" y2="332.286" stroke="rgb(0,0,0)" />
<text x="349" y="332" fill="rgb(0,0,0)">
-20</text>
<line x1="402" y1="324.762" x2="394" y2="324.762" stroke="rgb(0,0,0)" />
<line x1="402" y1="317.238" x2="398" y2="317.238" stroke="rgb(0,0,0)" />
<line x1="402" y1="309.714" x2="398" y2="309.714" stroke="rgb(0,0,0)" />
<line x1="402" y1="302.19" x2="398" y2="302.19" stroke="rgb(0,0,0)" />
<line x1="402" y1="294.667" x2="398" y2="294.667" stroke="rgb(0,0,0)" />
<text x="360" y="295" fill="rgb(0,0,0)">
0</text>
<line x1="402" y1="287.143" x2="394" y2="287.143" stroke="rgb(0,0,0)" />
<line x1="402" y1="279.619" x2="398" y2="279.619" stroke="rgb(0,0,0)" />
<line x1="402" y1="272.095" x2="398" y2="272.095" stroke="rgb(0,0,0)" />
<line x1="402" y1="264.571" x2="398" y2="264.571" stroke="rgb(0,0,0)" />
<line x1="402" y1="257.048" x2="398" y2="257.048" stroke="rgb(0,0,0)" />
<text x="354" y="257" fill="rgb(0,0,0)">
20</text>
<line x1="402" y1="249.524" x2="394" y2="249.524" stroke="rgb(0,0,0)" />
<line x1="402" y1="242" x2="398" y2="242" stroke="rgb(0,0,0)" />
<line x1="402" y1="234.476" x2="398" y2="234.476" stroke="rgb(0,0,0)" />
<line x1="402" y1="226.952" x2="398" y2="226.952" stroke="rgb(0,0,0)" />
<line x1="402" y1="219.429" x2="398" y2="219.429" stroke="rgb(0,0,0)" />
<text x="354" y="219" fill="rgb(0,0,0)">
40</text>
<line x1="402" y1="211.905" x2="394" y2="211.905" stroke="rgb(0,0,0)" />
<line x1="402" y1="204.381" x2="398" y2="204.381" stroke="rgb(0,0,0)" />
<line x1="402" y1="196.857" x2="398" y2="196.857" stroke="rgb(0,0,0)" />
<line x1="402" y1="189.333" x2="398" y2="189.333" stroke="rgb(0,0,0)" />
<line x1="402" y1="181.81" x2="398" y2="181.81" stroke="rgb(0,0,0)" />
<text x="354" y="182" fill="rgb(0,0,0)">
60</text>
<line x1="402" y1="174.286" x2="394" y2="174.286" stroke="rgb(0,0,0)" />
<line x1="402" y1="166.762" x2="398" y2="166.762" stroke="rgb(0,0,0)" />
<line x1="402" y1="159.238" x2="398" y2="159.238" stroke="rgb(0,0,0)" />
<line x1="402" y1="151.714" x2="398" y2="151.714" stroke="rgb(0,0,0)" />
<line x1="402" y1="144.19" x2="398" y2="144.19" stroke="rgb(0,0,0)" />
<text x="354" y="144" fill="rgb(0,0,0)">
80</text>
<line x1="402" y1="136.667" x2="394" y2="136.667" stroke="rgb(0,0,0)" />
<line x1="402" y1="129.143" x2="398" y2="129.143" stroke="rgb(0,0,0)" />
<line x1="402" y1="121.619" x2="398" y2="121.619" stroke="rgb(0,0,0)" />
<line x1="402" y1="114.095" x2="398" y2="114.095" stroke="rgb(0,0,0)" />
<line x1="402" y1="106.571" x2="398" y2="106.571" stroke="rgb(0,0,0)" />
<text x="349" y="107" fill="rgb(0,0,0)">
100</text>
<line x1="402" y1="99.0476" x2="394" y2="99.0476" stroke="rgb(0,0,0)" />
<line x1="402" y1="91.5238" x2="398" y2="91.5238" stroke="rgb(0,0,0)" />
<line x1="402" y1="84" x2="398" y2="84" stroke="rgb(0,0,0)" />
<line x1="402" y1="76.4762" x2="398" y2="76.4762" stroke="rgb(0,0,0)" />
<line x1="402" y1="68.9524" x2="398" y2="68.9524" stroke="rgb(0,0,0)" />
<text x="349" y="69" fill="rgb(0,0,0)">
120</text>
<line x1="402" y1="61.4286" x2="394" y2="61.4286" stroke="rgb(0,0,0)" />
<line x1="402" y1="53.9048" x2="398" y2="53.9048" stroke="rgb(0,0,0)" />
<line x1="402" y1="46.381" x2="398" y2="46.381" stroke="rgb(0,0,0)" />
<line x1="402" y1="38.8571" x2="398" y2="38.8571" stroke="rgb(0,0,0)" />
<line x1="402" y1="31.3333" x2="398" y2="31.3333" stroke="rgb(0,0,0)" />
<text x="349" y="31" fill="rgb(0,0,0)">
140</text>
<line x1="402" y1="23.8095" x2="394" y2="23.8095" stroke="rgb(0,0,0)" />
<line x1="402" y1="16.2857" x2="398" y2="16.2857" stroke="rgb(0,0,0)" />
<line x1="402" y1="8.7619" x2="398" y2="8.7619" stroke="rgb(0,0,0)" />
<text x="60" y="21" fill="rgb(3,3,252)">
Equation 1</text>
<text x="60" y="53" fill="rgb(252,3,3)">
Equation 2</text>
<clipPath>
<rect x="40" y="5" width="740" height="553" fill="rgb(0,0,0)" />
</clipPath>
<line x1="40" y1="344.324" x2="55.102" y2="342.067" stroke="rgb(3,3,252)" />
<line x1="55.102" y1="342.067" x2="70.2041" y2="339.81" stroke="rgb(3,3,252)" />
<line x1="70.2041" y1="339.81" x2="85.3061" y2="337.552" stroke="rgb(3,3,252)" />
<line x1="85.3061" y1="337.552" x2="100.408" y2="335.295" stroke="rgb(3,3,252)" />
<line x1="100.408" y1="335.295" x2="115.51" y2="333.038" stroke="rgb(3,3,252)" />
<line x1="115.51" y1="333.038" x2="130.612" y2="330.781" stroke="rgb(3,3,252)" />
<line x1="130.612" y1="330.781" x2="145.714" y2="328.524" stroke="rgb(3,3,252)" />
<line x1="145.714" y1="328.524" x2="160.816" y2="326.267" stroke="rgb(3,3,252)" />
<line x1="160.816" y1="326.267" x2="175.918" y2="324.01" stroke="rgb(3,3,252)" />
<line x1="175.918" y1="324.01" x2="191.02" y2="321.752" stroke="rgb(3,3,252)" />
<line x1="191.02" y1="321.752" x2="206.122" y2="319.495" stroke="rgb(3,3,252)" />
<line x1="206.122" y1="319.495" x2="221.224" y2="317.238" stroke="rgb(3,3,252)" />
<line x1="221.224" y1="317.238" x2="236.327" y2="314.981" stroke="rgb(3,3,252)" />
<line x1="236.327" y1="314.981" x2="251.429" y2="312.724" stroke="rgb(3,3,252)" />
<line x1="251.429" y1="312.724" x2="266.531" y2="310.467" stroke="rgb(3,3,252)" />
<line x1="266.531" y1="310.467" x2="281.633" y2="308.21" stroke="rgb(3,3,252)" />
<line x1="281.633" y1="308.21" x2="296.735" y2="305.952" stroke="rgb(3,3,252)" />
<line x1="296.735" y1="305.952" x2="311.837" y2="303.695" stroke="rgb(3,3,252)" />
<line x1="311.837" y1="303.695" x2="326.939" y2="301.438" stroke="rgb(3,3,252)" />
<line x1="326.939" y1="301.438" x2="342.041" y2="299.181" stroke="rgb(3,3,252)" />
<line x1="342.041" y1="299.181" x2="357.143" y2="296.924" stroke="rgb(3,3,252)" />
<line x1="357.143" y1="296.924" x2="372.245" y2="294.667" stroke="rgb(3,3,252)" />
<line x1="372.245" y1="294.667" x2="387.347" y2="292.41" stroke="rgb(3,3,252)" />
<line x1="387.347" y1="292.41" x2="402.449" y2="290.152" stroke="rgb(3,3,252)" />
<line x1="402.449" y1="290.152" x2="417.551" y2="287.895" stroke="rgb(3,3,252)" />
<line x1="417.551" y1="287.895" x2="432.653" y2="285.638" stroke="rgb(3,3,252)" />
<line x1="432.653" y1="285.638" x2="447.755" y2="283.381" stroke="rgb(3,3,252)" />
<line x1="447.755" y1="283.381" x2="462.857" y2="281.124" stroke="rgb(3,3,252)" />
<line x1="462.857" y1="281.124" x2="477.959" y2="278.867" stroke="rgb(3,3,252)" />
<line x1="477.959" y1="278.867" x2="493.061" y2="276.61" stroke="rgb(3,3,252)" />
<line x1="493.061" y1="276.61" x2="508.163" y2="274.352" stroke="rgb(3,3,252)" />
<line x1="508.163" y1="274.352" x2="523.265" y2="272.095" stroke="rgb(3,3,252)" />
<line x1="523.265" y1="272.095" x2="538.367" y2="269.838" stroke="rgb(3,3,252)" />
<line x1="538.367" y1="269.838" x2="553.469" y2="267.581" stroke="rgb(3,3,252)" />
<line x1="553.469" y1="267.581" x2="568.571" y2="265.324" stroke="rgb(3,3,252)" />
<line x1="568.571" y1="265.324" x2="583.673" y2="263.067" stroke="rgb(3,3,252)" />
<line x1="583.673" y1="263.067" x2="598.776" y2="260.81" stroke="rgb(3,3,252)" />
<line x1="598.776" y1="260.81" x2="613.878" y2="258.552" stroke="rgb(3,3,252)" />
<line x1="613.878" y1="258.552" x2="628.98" y2="256.295" stroke="rgb(3,3,252)" />
<line x1="628.98" y1="256.295" x2="644.082" y2="254.038" stroke="rgb(3,3,252)" />
<line x1="644.082" y1="254.038" x2="659.184" y2="251.781" stroke="rgb(3,3,252)" />
<line x1="659.184" y1="251.781" x2="674.286" y2="249.524" stroke="rgb(3,3,252)" />
<line x1="674.286" y1="249.524" x2="689.388" y2="247.267" stroke="rgb(3,3,252)" />
<line x1="689.388" y1="247.267" x2="704.49" y2="245.01" stroke="rgb(3,3,252)" />
<line x1="704.49" y1="245.01" x2="719.592" y2="242.752" stroke="rgb(3,3,252)" />
<line x1="719.592" y1="242.752" x2="734.694" y2="240.495" stroke="rgb(3,3,252)" />
<line x1="734.694" y1="240.495" x2="749.796" y2="238.238" stroke="rgb(3,3,252)" />
<line x1="749.796" y1="238.238" x2="764.898" y2="235.981" stroke="rgb(3,3,252)" />
<line x1="764.898" y1="235.981" x2="780" y2="233.724" stroke="rgb(3,3,252)" />
<line x1="40" y1="558" x2="55.102" y2="546.714" stroke="rgb(252,3,3)" />
<line x1="55.102" y1="546.714" x2="70.2041" y2="535.429" stroke="rgb(252,3,3)" />
<line x1="70.2041" y1="535.429" x2="85.3061" y2="524.143" stroke="rgb(252,3,3)" />
<line x1="85.3061" y1="524.143" x2="100.408" y2="512.857" stroke="rgb(252,3,3)" />
<line x1="100.408" y1="512.857" x2="115.51" y2="501.571" stroke="rgb(252,3,3)" />
<line x1="115.51" y1="501.571" x2="130.612" y2="490.286" stroke="rgb(252,3,3)" />
<line x1="130.612" y1="490.286" x2="145.714" y2="479" stroke="rgb(252,3,3)" />
<line x1="145.714" y1="479" x2="160.816" y2="467.714" stroke="rgb(252,3,3)" />
<line x1="160.816" y1="467.714" x2="175.918" y2="456.429" stroke="rgb(252,3,3)" />
<line x1="175.918" y1="456.429" x2="191.02" y2="445.143" stroke="rgb(252,3,3)" />
<line x1="191.02" y1="445.143" x2="206.122" y2="433.857" stroke="rgb(252,3,3)" />
<line x1="206.122" y1="433.857" x2="221.224" y2="422.571" stroke="rgb(252,3,3)" />
<line x1="221.224" y1="422.571" x2="236.327" y2="411.286" stroke="rgb(252,3,3)" />
<line x1="236.327" y1="411.286" x2="251.429" y2="400" stroke="rgb(252,3,3)" />
<line x1="251.429" y1="400" x2="266.531" y2="388.714" stroke="rgb(252,3,3)" />
<line x1="266.531" y1="388.714" x2="281.633" y2="377.429" stroke="rgb(252,3,3)" />
<line x1="281.633" y1="377.429" x2="296.735" y2="366.143" stroke="rgb(252,3,3)" />
<line x1="296.735" y1="366.143" x2="311.837" y2="354.857" stroke="rgb(252,3,3)" />
<line x1="311.837" y1="354.857" x2="326.939" y2="343.571" stroke="rgb(252,3,3)" />
<line x1="326.939" y1="343.571" x2="342.041" y2="332.286" stroke="rgb(252,3,3)" />
<line x1="342.041" y1="332.286" x2="357.143" y2="321" stroke="rgb(252,3,3)" />
<line x1="357.143" y1="321" x2="372.245" y2="309.714" stroke="rgb(252,3,3)" />
<line x1="372.245" y1="309.714" x2="387.347" y2="298.429" stroke="rgb(252,3,3)" />
<line x1="387.347" y1="298.429" x2="402.449" y2="287.143" stroke="rgb(252,3,3)" />
<line x1="402.449" y1="287.143" x2="417.551" y2="275.857" stroke="rgb(252,3,3)" />
<line x1="417.551" y1="275.857" x2="432.653" y2="264.571" stroke="rgb(252,3,3)" />
<line x1="432.653" y1="264.571" x2="447.755" y2="253.286" stroke="rgb(252,3,3)" />
<line x1="447.755" y1="253.286" x2="462.857" y2="242" stroke="rgb(252,3,3)" />
<line x1="462.857" y1="242" x2="477.959" y2="230.714" stroke="rgb(252,3,3)" />
<line x1="477.959" y1="230.714" x2="493.061" y2="219.429" stroke="rgb(252,3,3)" />
<line x1="493.061" y1="219.429" x2="508.163" y2="208.143" stroke="rgb(252,3,3)" />
<line x1="508.163" y1="208.143" x2="523.265" y2="196.857" stroke="rgb(252,3,3)" />
<line x1="523.265" y1="196.857" x2="538.367" y2="185.571" stroke="rgb(252,3,3)" />
<line x1="538.367" y1="185.571" x2="553.469" y2="174.286" stroke="rgb(252,3,3)" />
<line x1="553.469" y1="174.286" x2="568.571" y2="163" stroke="rgb(252,3,3)" />
<line x1="568.571" y1="163" x2="583.673" y2="151.714" stroke="rgb(252,3,3)" />
<line x1="583.673" y1="151.714" x2="598.776" y2="140.429" stroke="rgb(252,3,3)" />
<line x1="598.776" y1="140.429" x2="613.878" y2="129.143" stroke="rgb(252,3,3)" />
<line x1="613.878" y1="129.143" x2="628.98" y2="117.857" stroke="rgb(252,3,3)" />
<line x1="628.98" y1="117.857" x2="644.082" y2="106.571" stroke="rgb(252,3,3)" />
<line x1="644.082" y1="106.571" x2="659.184" y2="95.2857" stroke="rgb(252,3,3)" />
<line x1="659.184" y1="95.2857" x2="674.286" y2="84" stroke="rgb(252,3,3)" />
<line x1="674.286" y1="84" x2="689.388" y2="72.7143" stroke="rgb(252,3,3)" />
<line x1="689.388" y1="72.7143" x2="704.49" y2="61.4286" stroke="rgb(252,3,3)" />
<line x1="704.49" y1="61.4286" x2="719.592" y2="50.1429" stroke="rgb(252,3,3)" />
<line x1="719.592" y1="50.1429" x2="734.694" y2="38.8571" stroke="rgb(252,3,3)" />
<line x1="734.694" y1="38.8571" x2="749.796" y2="27.5714" stroke="rgb(252,3,3)" />
<line x1="749.796" y1="27.5714" x2="764.898" y2="16.2857" stroke="rgb(252,3,3)" />
<line x1="764.898" y1="16.2857" x2="780" y2="5" stroke="rgb(252,3,3)" />
</svg>

